<mxfile host="app.diagrams.net" modified="2024-03-25T22:36:38.630Z" agent="Mozilla/5.0 (Macintosh; Intel Mac OS X 10_15_7) AppleWebKit/537.36 (KHTML, like Gecko) Chrome/123.0.0.0 Safari/537.36" version="24.0.7" etag="o5t5ywc_FXRLhcHBzZKE" type="github">
  <diagram name="Page-1" id="z-QxMu6GP32I3HwFs9qK">
    <mxGraphModel>
      <root>
        <mxCell id="0" />
        <mxCell id="1" parent="0" />
      </root>
    </mxGraphModel>
  </diagram>
</mxfile>
